<svg width="15" height="19" viewBox="0 0 15 19" fill="none" xmlns="http://www.w3.org/2000/svg">
<path d="M7.33765 2.03327C8.02228 2.03327 8.69153 2.21695 9.26078 2.56109C9.83003 2.90522 10.2737 3.39436 10.5357 3.96663C10.7977 4.53891 10.8662 5.16863 10.7327 5.77615C10.5991 6.38368 10.2694 6.94173 9.78533 7.37973C9.30122 7.81773 8.68444 8.11602 8.01296 8.23686C7.34149 8.3577 6.64549 8.29568 6.01297 8.05864C5.38046 7.82159 4.83984 7.42017 4.45948 6.90514C4.07912 6.3901 3.87611 5.78458 3.87611 5.16515C3.87611 4.33453 4.2408 3.53792 4.88997 2.95058C5.53913 2.36324 6.41959 2.03327 7.33765 2.03327ZM7.33765 0.780518C6.37917 0.780518 5.44221 1.03767 4.64527 1.51946C3.84832 2.00125 3.22717 2.68604 2.86038 3.48723C2.49359 4.28841 2.39762 5.17002 2.58461 6.02055C2.7716 6.87109 3.23315 7.65236 3.9109 8.26556C4.58864 8.87876 5.45215 9.29636 6.39221 9.46554C7.33227 9.63472 8.30667 9.54789 9.19219 9.21603C10.0777 8.88417 10.8346 8.32218 11.3671 7.60113C11.8996 6.88008 12.1838 6.03235 12.1838 5.16515C12.1838 4.00228 11.6732 2.88703 10.7644 2.06475C9.85557 1.24247 8.62293 0.780518 7.33765 0.780518Z" fill="#595959"/>
<path d="M14.2608 18.3187H12.8762V15.1868C12.8762 14.3562 12.5115 13.5596 11.8623 12.9722C11.2131 12.3849 10.3327 12.0549 9.41461 12.0549H5.26077C4.34271 12.0549 3.46225 12.3849 2.81309 12.9722C2.16392 13.5596 1.79923 14.3562 1.79923 15.1868V18.3187H0.414612V15.1868C0.414612 14.0239 0.925187 12.9087 1.83402 12.0864C2.74285 11.2641 3.97549 10.8022 5.26077 10.8022H9.41461C10.6999 10.8022 11.9325 11.2641 12.8414 12.0864C13.7502 12.9087 14.2608 14.0239 14.2608 15.1868V18.3187Z" fill="#595959"/>
</svg>
